<svg version="1" xmlns="http://www.w3.org/2000/svg" width="933.333" height="933.333" viewBox="0 0 700.000000 700.000000"><path d="M157.5 1.9c-4.9 2.3-8.9 6.4-10.9 11.3-1.4 3.4-1.6 37.9-1.6 336.8 0 298.9.2 333.4 1.6 336.8 2 4.9 6 9 10.9 11.3 3.8 1.8 11.2 1.9 193.1 1.9h189l5-2.5c5.5-2.8 8.8-6.5 11-12.7 2.1-6.1 2.1-663.5 0-669.6-2.2-6.2-5.5-9.9-11-12.7l-5-2.5h-189C168.7 0 161.3.1 157.5 1.9zM373.7 271c44.7 5.9 78.7 25.7 102.7 59.9 5.6 7.9 14 25.2 17.6 35.9 13.2 39.7 13.4 89.7.4 130.7-3.4 10.8-13 30.5-19.1 39-17.2 24.1-41.2 41.6-69.8 50.6-19.2 6-33.1 8-55.9 8-31.1 0-53.5-4.8-76.8-16.5-33.1-16.6-56.8-45-68.6-82.3-6.9-21.8-9.2-37.6-9.2-64.4 0-33.1 5.4-58.6 17.6-83.5 20.8-42.6 58.9-69.4 108.9-76.8 11-1.7 41.5-2 52.2-.6z"/><path d="M335.2 335.5c-25.9 5.9-44.7 28.7-51.6 62.7-2.4 11.9-3.8 31.2-3.1 43.3 1.9 33.4 10.2 56.3 26 72 11.9 11.9 21.8 16.2 39.5 17.2 19 1 34.2-4.7 47.1-17.8 5.3-5.4 7.8-9.1 12.3-18.1 9.7-19.7 13.3-40.3 12.3-69.8-1.3-34.2-9.4-57-26.1-73.5-8.1-8-14.5-12-24.4-15.1-6.8-2.2-24.3-2.7-32-.9z"/></svg>